<svg xmlns="http://www.w3.org/2000/svg" xmlns:xlink="http://www.w3.org/1999/xlink" width="2245" zoomAndPan="magnify" viewBox="0 0 1683.75 1190.250009" height="1587" preserveAspectRatio="xMidYMid meet" version="1.0"><defs><g/><clipPath id="b2ab0d53a3"><rect x="0" width="320" y="0" height="555"/></clipPath><clipPath id="fb52ee883b"><rect x="0" width="303" y="0" height="555"/></clipPath><clipPath id="0e60302e9c"><path d="M 23 30 L 281.25 30 L 281.25 397 L 23 397 Z M 23 30 " clip-rule="nonzero"/></clipPath><clipPath id="6c3b112407"><rect x="0" width="282" y="0" height="555"/></clipPath><clipPath id="d590191e52"><rect x="0" width="121" y="0" height="555"/></clipPath><clipPath id="7133e149a1"><rect x="0" width="323" y="0" height="555"/></clipPath><clipPath id="7564be8443"><path d="M 27 23 L 396.917969 23 L 396.917969 404 L 27 404 Z M 27 23 " clip-rule="nonzero"/></clipPath><clipPath id="dcb20d3f68"><rect x="0" width="397" y="0" height="555"/></clipPath></defs><g transform="matrix(1, 0, 0, 1, 548, 399)"><g clip-path="url(#b2ab0d53a3)"><g fill="#000000" fill-opacity="1"><g transform="translate(0.266448, 396.986987)"><g><path d="M 317.921875 -366.828125 L 317.921875 -130.28125 C 317.921875 -84.925781 305.691406 -50.757812 281.234375 -27.78125 C 256.773438 -4.8125 221.28125 6.671875 174.75 6.671875 C 127.90625 6.671875 92.328125 -4.8125 68.015625 -27.78125 C 43.710938 -50.757812 31.5625 -84.925781 31.5625 -130.28125 L 31.5625 -366.828125 L 115.15625 -366.828125 L 115.15625 -154.734375 C 115.15625 -134.285156 117.226562 -118.28125 121.375 -106.71875 C 125.53125 -95.15625 132.054688 -87.078125 140.953125 -82.484375 C 149.847656 -77.890625 161.113281 -75.59375 174.75 -75.59375 C 188.382812 -75.59375 199.570312 -77.890625 208.3125 -82.484375 C 217.0625 -87.078125 223.582031 -95.15625 227.875 -106.71875 C 232.175781 -118.28125 234.328125 -134.285156 234.328125 -154.734375 L 234.328125 -366.828125 Z M 317.921875 -366.828125 "/></g></g></g></g></g><g transform="matrix(1, 0, 0, 1, 2, 399)"><g clip-path="url(#fb52ee883b)"><g fill="#000000" fill-opacity="1"><g transform="translate(0.974547, 396.986987)"><g><path d="M 65.359375 -112.046875 C 74.847656 -105.234375 85.890625 -98.9375 98.484375 -93.15625 C 111.085938 -87.375 123.757812 -82.851562 136.5 -79.59375 C 149.25 -76.332031 161.03125 -74.847656 171.84375 -75.140625 C 182.664062 -75.441406 191.410156 -78.035156 198.078125 -82.921875 C 204.753906 -87.816406 208.09375 -95.75 208.09375 -106.71875 C 208.09375 -116.5 204.382812 -125.164062 196.96875 -132.71875 C 189.5625 -140.28125 180.078125 -147.394531 168.515625 -154.0625 C 156.953125 -160.738281 144.648438 -167.484375 131.609375 -174.296875 C 118.566406 -181.117188 106.265625 -188.601562 94.703125 -196.75 C 83.148438 -204.90625 73.738281 -214.242188 66.46875 -224.765625 C 59.207031 -235.285156 55.578125 -247.515625 55.578125 -261.453125 C 55.578125 -277.160156 58.910156 -292.5 65.578125 -307.46875 C 72.253906 -322.4375 82.113281 -335.476562 95.15625 -346.59375 C 108.195312 -357.707031 124.128906 -365.632812 142.953125 -370.375 C 161.773438 -375.125 183.410156 -375.203125 207.859375 -370.609375 C 232.316406 -366.015625 259.367188 -355.414062 289.015625 -338.8125 L 255.21875 -272.125 C 241.289062 -283.976562 227.429688 -291.753906 213.640625 -295.453125 C 199.859375 -299.160156 187.1875 -299.90625 175.625 -297.6875 C 164.070312 -295.46875 154.8125 -291.316406 147.84375 -285.234375 C 140.875 -279.160156 137.390625 -272.269531 137.390625 -264.5625 C 137.390625 -257.738281 141.242188 -251.582031 148.953125 -246.09375 C 156.660156 -240.613281 166.664062 -235.132812 178.96875 -229.65625 C 191.269531 -224.175781 204.382812 -218.097656 218.3125 -211.421875 C 232.25 -204.753906 245.367188 -196.898438 257.671875 -187.859375 C 269.972656 -178.816406 280.050781 -168.144531 287.90625 -155.84375 C 295.757812 -143.539062 299.6875 -128.796875 299.6875 -111.609375 C 299.6875 -94.117188 294.941406 -77.21875 285.453125 -60.90625 C 275.972656 -44.601562 262.785156 -30.523438 245.890625 -18.671875 C 228.992188 -6.816406 208.984375 1.035156 185.859375 4.890625 C 162.734375 8.742188 137.460938 7.257812 110.046875 0.4375 C 82.628906 -6.375 53.800781 -20.453125 23.5625 -41.796875 Z M 65.359375 -112.046875 "/></g></g></g></g></g><g transform="matrix(1, 0, 0, 1, 284, 399)"><g clip-path="url(#6c3b112407)"><g clip-path="url(#0e60302e9c)"><g fill="#000000" fill-opacity="1"><g transform="translate(0.496385, 396.986987)"><g><path d="M 22.671875 -293.46875 L 22.671875 -366.828125 L 280.5625 -366.828125 L 280.5625 -293.46875 L 193.421875 -293.46875 L 193.421875 0 L 109.828125 0 L 109.828125 -293.46875 Z M 22.671875 -293.46875 "/></g></g></g></g></g></g><g transform="matrix(1, 0, 0, 1, 1158, 399)"><g clip-path="url(#d590191e52)"><g fill="#000000" fill-opacity="1"><g transform="translate(0.920412, 396.986987)"><g><path d="M 116.9375 -366.828125 L 116.9375 0 L 33.34375 0 L 33.34375 -366.828125 Z M 116.9375 -366.828125 "/></g></g></g></g></g><g transform="matrix(1, 0, 0, 1, 853, 399)"><g clip-path="url(#7133e149a1)"><g fill="#000000" fill-opacity="1"><g transform="translate(0.111302, 396.986987)"><g><path d="M 232.109375 -183.1875 C 232.109375 -204.53125 228.550781 -223.425781 221.4375 -239.875 C 214.320312 -256.332031 202.164062 -269.15625 184.96875 -278.34375 C 167.78125 -287.53125 144.066406 -292.125 113.828125 -292.125 L 113.828125 -74.703125 C 144.066406 -74.703125 167.78125 -79.296875 184.96875 -88.484375 C 202.164062 -97.671875 214.320312 -110.414062 221.4375 -126.71875 C 228.550781 -143.019531 232.109375 -161.84375 232.109375 -183.1875 Z M 30.234375 -366.828125 L 136.953125 -366.828125 C 162.148438 -366.828125 185.863281 -362.304688 208.09375 -353.265625 C 230.320312 -344.222656 249.957031 -331.550781 267 -315.25 C 284.050781 -298.945312 297.390625 -279.601562 307.015625 -257.21875 C 316.648438 -234.84375 321.46875 -210.316406 321.46875 -183.640625 C 321.46875 -156.960938 316.648438 -132.429688 307.015625 -110.046875 C 297.390625 -87.671875 284.050781 -68.253906 267 -51.796875 C 249.957031 -35.347656 230.320312 -22.601562 208.09375 -13.5625 C 185.863281 -4.519531 162.148438 0 136.953125 0 L 30.234375 0 Z M 30.234375 -366.828125 "/></g></g></g></g></g><g transform="matrix(1, 0, 0, 1, 1263, 399)"><g clip-path="url(#dcb20d3f68)"><g clip-path="url(#7564be8443)"><g fill="#000000" fill-opacity="1"><g transform="translate(0.415579, 396.986987)"><g><path d="M 109.828125 -183.640625 C 109.828125 -164.660156 114.347656 -147.242188 123.390625 -131.390625 C 132.429688 -115.535156 144.65625 -102.789062 160.0625 -93.15625 C 175.476562 -83.519531 192.675781 -78.703125 211.65625 -78.703125 C 230.625 -78.703125 247.738281 -83.519531 263 -93.15625 C 278.269531 -102.789062 290.425781 -115.535156 299.46875 -131.390625 C 308.507812 -147.242188 313.03125 -164.660156 313.03125 -183.640625 C 313.03125 -202.609375 308.507812 -220.019531 299.46875 -235.875 C 290.425781 -251.738281 278.269531 -264.410156 263 -273.890625 C 247.738281 -283.378906 230.625 -288.125 211.65625 -288.125 C 192.675781 -288.125 175.476562 -283.378906 160.0625 -273.890625 C 144.65625 -264.410156 132.429688 -251.738281 123.390625 -235.875 C 114.347656 -220.019531 109.828125 -202.609375 109.828125 -183.640625 Z M 26.671875 -183.640625 C 26.671875 -209.429688 31.414062 -233.738281 40.90625 -256.5625 C 50.394531 -279.382812 63.585938 -299.613281 80.484375 -317.25 C 97.378906 -334.882812 117.015625 -348.664062 139.390625 -358.59375 C 161.773438 -368.53125 185.863281 -373.5 211.65625 -373.5 C 237.4375 -373.5 261.515625 -368.53125 283.890625 -358.59375 C 306.273438 -348.664062 325.84375 -334.882812 342.59375 -317.25 C 359.34375 -299.613281 372.457031 -279.382812 381.9375 -256.5625 C 391.425781 -233.738281 396.171875 -209.429688 396.171875 -183.640625 C 396.171875 -157.847656 391.425781 -133.460938 381.9375 -110.484375 C 372.457031 -87.515625 359.34375 -67.285156 342.59375 -49.796875 C 325.84375 -32.304688 306.273438 -18.519531 283.890625 -8.4375 C 261.515625 1.632812 237.4375 6.671875 211.65625 6.671875 C 185.863281 6.671875 161.773438 1.632812 139.390625 -8.4375 C 117.015625 -18.519531 97.378906 -32.304688 80.484375 -49.796875 C 63.585938 -67.285156 50.394531 -87.515625 40.90625 -110.484375 C 31.414062 -133.460938 26.671875 -157.847656 26.671875 -183.640625 Z M 26.671875 -183.640625 "/></g></g></g></g></g></g></svg>