<svg xmlns="http://www.w3.org/2000/svg" xmlns:xlink="http://www.w3.org/1999/xlink" width="2245" zoomAndPan="magnify" viewBox="0 0 1683.75 1190.250009" height="1587" preserveAspectRatio="xMidYMid meet" version="1.0"><defs><g/><clipPath id="b251dbdac0"><rect x="0" width="373" y="0" height="958"/></clipPath><clipPath id="39d900a731"><rect x="0" width="425" y="0" height="958"/></clipPath><clipPath id="b429a5a5a5"><rect x="0" width="488" y="0" height="958"/></clipPath><clipPath id="448e22d918"><path d="M 1166 0 L 1683.09375 0 L 1683.09375 958 L 1166 958 Z M 1166 0 " clip-rule="nonzero"/></clipPath><clipPath id="31671691f8"><rect x="0" width="518" y="0" height="958"/></clipPath></defs><g transform="matrix(1, 0, 0, 1, 405, 0.00000000000002896)"><g clip-path="url(#b251dbdac0)"><g fill="#01758a" fill-opacity="1"><g transform="translate(1.133016, 780.552523)"><g><path d="M 292.78125 -282.726562 C 281.601562 -293.34375 272.59375 -301.390625 265.753906 -306.863281 C 259.285156 -312.039062 253.289062 -316.132812 247.769531 -319.144531 L 247.078125 -319.519531 L 246.425781 -319.964844 C 238.164062 -325.617188 231.046875 -328.445312 225.070312 -328.445312 C 209.488281 -328.445312 191.746094 -317.746094 171.839844 -296.347656 L 160.394531 -306.996094 L 172.226562 -296.777344 C 150.90625 -272.089844 134.707031 -250.886719 123.636719 -233.171875 L 110.378906 -241.457031 L 126.011719 -241.457031 L 126.011719 26.839844 L 31.796875 26.839844 L 31.796875 -271.730469 L 35.964844 -276.226562 C 79.410156 -323.101562 105.761719 -352.289062 115.019531 -363.792969 C 125.742188 -377.113281 137.992188 -387.714844 151.777344 -395.589844 L 159.535156 -382.019531 L 149.277344 -393.8125 C 164.691406 -407.21875 180.441406 -415.316406 196.523438 -418.113281 C 210.632812 -420.570312 224.171875 -421.796875 237.144531 -421.796875 C 250.648438 -421.796875 263.363281 -419.410156 275.289062 -414.640625 C 286.488281 -410.160156 297.472656 -404.117188 308.246094 -396.511719 C 327.195312 -383.066406 341.417969 -370.648438 350.910156 -359.257812 L 358.238281 -350.460938 L 306.5 -269.695312 Z M 314.3125 -305.390625 L 303.546875 -294.058594 L 290.382812 -302.492188 L 325.738281 -357.679688 L 338.902344 -349.25 L 326.894531 -339.242188 C 319.136719 -348.550781 306.914062 -359.125 290.21875 -370.972656 C 281.449219 -377.164062 272.601562 -382.046875 263.675781 -385.613281 C 255.480469 -388.894531 246.636719 -390.535156 237.144531 -390.535156 C 225.972656 -390.535156 214.214844 -389.460938 201.878906 -387.316406 C 191.519531 -385.511719 180.820312 -379.816406 169.789062 -370.222656 L 168.628906 -369.210938 L 167.289062 -368.445312 C 156.929688 -362.527344 147.621094 -354.441406 139.371094 -344.191406 C 129.660156 -332.125 102.832031 -302.386719 58.894531 -254.976562 L 47.429688 -265.601562 L 63.058594 -265.601562 L 63.058594 11.210938 L 47.429688 11.210938 L 47.429688 -4.421875 L 110.378906 -4.421875 L 110.378906 11.210938 L 94.75 11.210938 L 94.75 -245.941406 L 97.125 -249.742188 C 109.046875 -268.816406 126.195312 -291.308594 148.566406 -317.210938 L 148.753906 -317.429688 L 148.953125 -317.640625 C 175.039062 -345.683594 200.410156 -359.707031 225.070312 -359.707031 C 237.492188 -359.707031 250.496094 -355.058594 264.082031 -345.765625 L 255.253906 -332.863281 L 262.738281 -346.585938 C 269.867188 -342.699219 277.382812 -337.59375 285.285156 -331.273438 C 292.816406 -325.246094 302.492188 -316.621094 314.3125 -305.390625 Z M 314.3125 -305.390625 "/></g></g></g><g fill="#01758a" fill-opacity="1"><g transform="translate(1.133016, 780.552523)"><g><path d="M 303.546875 -294.0625 C 292.046875 -304.976562 282.703125 -313.3125 275.515625 -319.0625 C 268.328125 -324.8125 261.570312 -329.410156 255.25 -332.859375 C 244.332031 -340.335938 234.273438 -344.078125 225.078125 -344.078125 C 204.953125 -344.078125 183.390625 -331.71875 160.390625 -307 C 138.546875 -281.695312 121.875 -259.847656 110.375 -241.453125 L 110.375 11.203125 L 47.421875 11.203125 L 47.421875 -265.609375 C 91.117188 -312.742188 117.707031 -342.203125 127.1875 -353.984375 C 136.675781 -365.773438 147.457031 -375.117188 159.53125 -382.015625 C 172.757812 -393.515625 185.984375 -400.410156 199.203125 -402.703125 C 212.421875 -405.003906 225.066406 -406.15625 237.140625 -406.15625 C 248.640625 -406.15625 259.421875 -404.144531 269.484375 -400.125 C 279.546875 -396.101562 289.460938 -390.644531 299.234375 -383.75 C 317.054688 -371.09375 330.28125 -359.59375 338.90625 -349.25 Z M 303.546875 -294.0625 "/></g></g></g></g></g><g transform="matrix(1, 0, 0, 1, 41, 0.00000000000002896)"><g clip-path="url(#39d900a731)"><g fill="#01758a" fill-opacity="1"><g transform="translate(0.32848, 780.552523)"><g><path d="M 356.230469 10.410156 C 347.839844 13.40625 339.875 15.960938 332.335938 18.070312 C 325.214844 20.0625 316.800781 22.488281 307.09375 25.34375 L 306.878906 25.40625 L 306.660156 25.464844 C 295.101562 28.507812 283.53125 30.789062 271.953125 32.3125 C 260.351562 33.839844 248.464844 34.601562 236.28125 34.601562 C 168.585938 34.601562 114.804688 13.730469 74.929688 -28.007812 C 35.828125 -69.59375 16.277344 -124.648438 16.277344 -193.164062 C 16.277344 -255.714844 35.382812 -308.871094 73.597656 -352.632812 C 114.097656 -398.742188 166.890625 -421.796875 231.972656 -421.796875 C 254.523438 -421.796875 274.472656 -419.628906 291.8125 -415.292969 L 288.023438 -400.128906 L 291.089844 -415.457031 C 300.191406 -413.632812 309.292969 -411.359375 318.386719 -408.632812 C 327.234375 -405.976562 337.519531 -402.597656 349.238281 -398.496094 L 359.707031 -394.832031 L 359.707031 -288.230469 L 337.332031 -298.929688 C 324.644531 -304.996094 314.414062 -309.371094 306.640625 -312.050781 C 298.25 -314.945312 290.003906 -317.839844 281.902344 -320.730469 C 267.507812 -325.875 251.148438 -328.445312 232.832031 -328.445312 C 196.742188 -328.445312 168.183594 -316.425781 147.152344 -292.390625 C 124.433594 -266.574219 113.074219 -233.5 113.074219 -193.164062 C 113.074219 -151.289062 124.316406 -118.34375 146.800781 -94.328125 C 157.371094 -82.75 170.046875 -73.957031 184.828125 -67.945312 C 199.898438 -61.8125 217.625 -58.75 238.007812 -58.75 C 257.175781 -58.75 274.648438 -61.117188 290.429688 -65.851562 L 294.921875 -50.878906 L 289.980469 -65.707031 C 298.550781 -68.566406 306.980469 -71.421875 315.265625 -74.277344 C 323.242188 -77.03125 333.09375 -80.917969 344.816406 -85.941406 L 366.605469 -95.28125 L 366.605469 6.703125 Z M 345.71875 -19.03125 L 350.972656 -4.3125 L 335.34375 -4.3125 L 335.34375 -71.574219 L 350.972656 -71.574219 L 357.132812 -57.207031 C 344.710938 -51.882812 334.152344 -47.722656 325.457031 -44.726562 C 317.070312 -41.832031 308.539062 -38.941406 299.863281 -36.050781 L 299.640625 -35.972656 L 299.414062 -35.90625 C 280.703125 -30.292969 260.234375 -27.484375 238.007812 -27.484375 C 213.546875 -27.484375 191.894531 -31.320312 173.046875 -38.988281 C 153.90625 -46.773438 137.550781 -58.097656 123.976562 -72.964844 C 95.867188 -102.988281 81.8125 -143.058594 81.8125 -193.164062 C 81.8125 -241.363281 95.75 -281.300781 123.625 -312.976562 C 150.882812 -344.128906 187.285156 -359.707031 232.832031 -359.707031 C 254.757812 -359.707031 274.621094 -356.527344 292.417969 -350.171875 C 300.414062 -347.316406 308.550781 -344.460938 316.832031 -341.605469 C 325.730469 -338.539062 337.058594 -333.714844 350.820312 -327.132812 L 344.074219 -313.03125 L 328.445312 -313.03125 L 328.445312 -383.742188 L 344.074219 -383.742188 L 338.910156 -368.988281 C 327.636719 -372.9375 317.800781 -376.167969 309.402344 -378.6875 C 301.25 -381.132812 293.101562 -383.171875 284.957031 -384.800781 L 284.59375 -384.875 L 284.230469 -384.964844 C 269.378906 -388.675781 251.960938 -390.535156 231.972656 -390.535156 C 176.324219 -390.535156 131.382812 -371.046875 97.144531 -332.070312 C 64.074219 -294.195312 47.539062 -247.894531 47.539062 -193.164062 C 47.539062 -132.90625 64.203125 -85.050781 97.539062 -49.601562 C 131.253906 -14.308594 177.5 3.339844 236.28125 3.339844 C 247.097656 3.339844 257.628906 2.667969 267.875 1.316406 C 278.144531 -0.03125 288.421875 -2.0625 298.703125 -4.769531 L 302.683594 10.347656 L 298.273438 -4.648438 C 308.109375 -7.542969 316.65625 -10.003906 323.90625 -12.035156 C 330.742188 -13.949219 338.011719 -16.28125 345.71875 -19.03125 Z M 345.71875 -19.03125 "/></g></g></g><g fill="#01758a" fill-opacity="1"><g transform="translate(0.32848, 780.552523)"><g><path d="M 350.96875 -4.3125 C 342.925781 -1.4375 335.3125 1.003906 328.125 3.015625 C 320.9375 5.023438 312.457031 7.46875 302.6875 10.34375 C 291.757812 13.21875 280.832031 15.375 269.90625 16.8125 C 258.988281 18.25 247.78125 18.96875 236.28125 18.96875 C 173.039062 18.96875 123.023438 -0.289062 86.234375 -38.8125 C 50.015625 -77.320312 31.90625 -128.773438 31.90625 -193.171875 C 31.90625 -251.804688 49.726562 -301.53125 85.375 -342.34375 C 122.738281 -384.882812 171.601562 -406.15625 231.96875 -406.15625 C 253.238281 -406.15625 271.921875 -404.144531 288.015625 -400.125 C 296.640625 -398.40625 305.265625 -396.25 313.890625 -393.65625 C 322.515625 -391.070312 332.578125 -387.769531 344.078125 -383.75 L 344.078125 -313.03125 C 330.847656 -319.351562 320.066406 -323.953125 311.734375 -326.828125 C 303.398438 -329.703125 295.207031 -332.578125 287.15625 -335.453125 C 271.0625 -341.203125 252.953125 -344.078125 232.828125 -344.078125 C 192.015625 -344.078125 159.535156 -330.28125 135.390625 -302.6875 C 110.085938 -273.9375 97.4375 -237.429688 97.4375 -193.171875 C 97.4375 -147.171875 110.085938 -110.660156 135.390625 -83.640625 C 147.460938 -70.421875 161.976562 -60.363281 178.9375 -53.46875 C 195.894531 -46.570312 215.582031 -43.125 238 -43.125 C 258.695312 -43.125 277.671875 -45.707031 294.921875 -50.875 C 303.546875 -53.75 312.023438 -56.625 320.359375 -59.5 C 328.691406 -62.375 338.894531 -66.398438 350.96875 -71.578125 Z M 350.96875 -4.3125 "/></g></g></g></g></g><g transform="matrix(1, 0, 0, 1, 731, 0.00000000000002896)"><g clip-path="url(#b429a5a5a5)"><g fill="#01758a" fill-opacity="1"><g transform="translate(0.617667, 780.552523)"><g><path d="M 113.074219 -197.476562 L 113.074219 -181.953125 L 97.445312 -181.953125 L 113.058594 -182.675781 C 114.597656 -149.339844 127.164062 -120.878906 150.753906 -97.289062 C 163.621094 -84.9375 177.816406 -75.398438 193.34375 -68.671875 C 208.609375 -62.054688 226.082031 -58.75 245.769531 -58.75 C 272.363281 -58.75 296.261719 -64.695312 317.457031 -76.582031 C 329.636719 -83.226562 340.632812 -90.09375 350.445312 -97.179688 C 360.292969 -104.292969 372.175781 -114.253906 386.09375 -127.058594 L 412.308594 -151.175781 L 412.308594 -31.082031 L 406.171875 -26.390625 C 396.019531 -18.625 385.710938 -11.453125 375.246094 -4.875 C 364.496094 1.882812 352.707031 8.007812 339.886719 13.503906 L 333.726562 -0.863281 L 340.371094 13.289062 C 310.09375 27.496094 277.410156 34.601562 242.320312 34.601562 C 176.976562 34.601562 122.9375 12.613281 80.199219 -31.359375 C 38.160156 -76.488281 17.136719 -132.4375 17.136719 -199.203125 C 17.136719 -261.253906 36.003906 -313.3125 73.738281 -355.375 C 112.402344 -399.65625 161.699219 -421.796875 221.621094 -421.796875 C 279.699219 -421.796875 327.53125 -401.117188 365.128906 -359.765625 C 383.21875 -339.800781 396.921875 -316.617188 406.246094 -290.207031 C 415.460938 -264.089844 420.070312 -233.179688 420.070312 -197.476562 L 420.070312 -181.847656 L 97.445312 -181.847656 L 97.445312 -197.476562 Z M 81.8125 -213.109375 L 404.441406 -213.109375 L 404.441406 -197.476562 L 388.808594 -197.476562 C 388.808594 -229.609375 384.792969 -257.054688 376.765625 -279.800781 C 368.839844 -302.257812 357.25 -321.902344 341.996094 -338.734375 C 310.601562 -373.265625 270.476562 -390.535156 221.621094 -390.535156 C 171.167969 -390.535156 129.628906 -371.855469 97.007812 -334.5 C 64.601562 -298.375 48.398438 -253.277344 48.398438 -199.203125 C 48.398438 -140.640625 66.472656 -91.957031 102.617188 -53.148438 C 139.214844 -15.488281 185.785156 3.339844 242.320312 3.339844 C 272.765625 3.339844 301.019531 -2.777344 327.085938 -15.011719 L 327.324219 -15.125 L 327.570312 -15.230469 C 338.894531 -20.082031 349.238281 -25.453125 358.609375 -31.34375 C 368.265625 -37.414062 377.789062 -44.039062 387.183594 -51.222656 L 396.679688 -38.804688 L 381.046875 -38.804688 L 381.046875 -115.554688 L 396.679688 -115.554688 L 407.261719 -104.050781 C 392.433594 -90.410156 379.597656 -79.671875 368.75 -71.839844 C 357.867188 -63.980469 345.867188 -56.472656 332.75 -49.320312 C 306.804688 -34.765625 277.8125 -27.484375 245.769531 -27.484375 C 221.761719 -27.484375 200.144531 -31.652344 180.914062 -39.984375 C 161.945312 -48.203125 144.523438 -59.9375 128.648438 -75.183594 C 99.347656 -104.480469 83.742188 -139.832031 81.832031 -181.234375 L 81.8125 -181.59375 Z M 313.25 -244.304688 C 310.589844 -257.082031 306.875 -269.027344 302.113281 -280.140625 C 297.730469 -290.371094 292.222656 -298.796875 285.59375 -305.429688 C 278.46875 -312.554688 269.847656 -318.164062 259.738281 -322.257812 C 249.546875 -326.382812 237.128906 -328.445312 222.484375 -328.445312 C 189.566406 -328.445312 163.460938 -316.324219 144.167969 -292.085938 C 139.804688 -286.75 135.75 -279.84375 132.011719 -271.367188 C 127.972656 -262.210938 124.609375 -253.070312 121.925781 -243.945312 L 106.929688 -248.355469 L 106.929688 -263.984375 L 344.183594 -263.984375 L 344.183594 -247.492188 Z M 343.855469 -250.679688 L 328.554688 -247.492188 L 312.921875 -247.492188 L 312.921875 -248.355469 L 328.554688 -248.355469 L 328.554688 -232.722656 L 86.039062 -232.722656 L 91.933594 -252.765625 C 95 -263.1875 98.824219 -273.59375 103.410156 -283.984375 C 108.292969 -295.054688 113.726562 -304.242188 119.707031 -311.554688 C 145.257812 -343.65625 179.515625 -359.707031 222.484375 -359.707031 C 241.1875 -359.707031 257.511719 -356.882812 271.46875 -351.234375 C 285.5 -345.554688 297.578125 -337.652344 307.699219 -327.535156 C 317.167969 -318.066406 324.882812 -306.375 330.847656 -292.457031 C 336.433594 -279.425781 340.769531 -265.5 343.855469 -250.679688 Z M 343.855469 -250.679688 "/></g></g></g><g fill="#01758a" fill-opacity="1"><g transform="translate(0.617667, 780.552523)"><g><path d="M 97.4375 -197.484375 L 97.4375 -181.953125 C 99.164062 -144.585938 113.253906 -112.679688 139.703125 -86.234375 C 154.078125 -72.429688 169.882812 -61.796875 187.125 -54.328125 C 204.375 -46.859375 223.921875 -43.125 245.765625 -43.125 C 275.085938 -43.125 301.535156 -49.734375 325.109375 -62.953125 C 337.753906 -69.847656 349.25 -77.03125 359.59375 -84.5 C 369.945312 -91.976562 382.304688 -102.328125 396.671875 -115.546875 L 396.671875 -38.8125 C 386.898438 -31.332031 376.984375 -24.429688 366.921875 -18.109375 C 356.867188 -11.785156 345.804688 -6.035156 333.734375 -0.859375 C 305.554688 12.359375 275.082031 18.96875 242.3125 18.96875 C 181.375 18.96875 131.070312 -1.4375 91.40625 -42.25 C 52.3125 -84.21875 32.765625 -136.535156 32.765625 -199.203125 C 32.765625 -257.265625 50.300781 -305.84375 85.375 -344.9375 C 121.019531 -385.75 166.4375 -406.15625 221.625 -406.15625 C 275.09375 -406.15625 319.070312 -387.1875 353.5625 -349.25 C 370.226562 -330.851562 382.875 -309.4375 391.5 -285 C 400.125 -260.570312 404.4375 -231.398438 404.4375 -197.484375 Z M 328.546875 -247.5 C 325.671875 -261.289062 321.644531 -274.222656 316.46875 -286.296875 C 311.300781 -298.367188 304.691406 -308.429688 296.640625 -316.484375 C 288.023438 -325.109375 277.679688 -331.863281 265.609375 -336.75 C 253.535156 -341.632812 239.160156 -344.078125 222.484375 -344.078125 C 184.535156 -344.078125 154.351562 -329.992188 131.9375 -301.828125 C 126.757812 -295.492188 122.015625 -287.441406 117.703125 -277.671875 C 113.398438 -267.898438 109.8125 -258.128906 106.9375 -248.359375 L 328.546875 -248.359375 Z M 328.546875 -247.5 "/></g></g></g></g></g><g clip-path="url(#448e22d918)"><g transform="matrix(1, 0, 0, 1, 1166, 0.00000000000002896)"><g clip-path="url(#31671691f8)"><g fill="#01758a" fill-opacity="1"><g transform="translate(0.301151, 780.552523)"><g><path d="M 469.222656 -193.164062 C 469.222656 -130.425781 448.28125 -76.570312 406.390625 -31.601562 L 406.242188 -31.4375 L 406.085938 -31.28125 C 362.78125 12.640625 309.34375 34.601562 245.769531 34.601562 C 181.53125 34.601562 128.328125 12.585938 86.15625 -31.441406 C 43.019531 -76.429688 21.449219 -130.335938 21.449219 -193.164062 C 21.449219 -257.140625 42.730469 -311.335938 85.296875 -355.753906 C 127.464844 -399.78125 180.957031 -421.796875 245.769531 -421.796875 C 309.386719 -421.796875 362.5625 -399.808594 405.300781 -355.832031 C 447.917969 -311.363281 469.222656 -257.140625 469.222656 -193.164062 Z M 437.960938 -193.164062 C 437.960938 -248.765625 419.601562 -295.726562 382.882812 -334.042969 C 346.285156 -371.703125 300.578125 -390.535156 245.769531 -390.535156 C 189.851562 -390.535156 143.886719 -371.730469 107.867188 -334.121094 C 71.097656 -295.753906 52.710938 -248.765625 52.710938 -193.164062 C 52.710938 -138.714844 71.386719 -92.015625 108.734375 -53.066406 C 144.75 -15.460938 190.429688 3.339844 245.769531 3.339844 C 300.621094 3.339844 346.640625 -15.515625 383.824219 -53.230469 L 394.953125 -42.253906 L 383.515625 -52.910156 C 419.8125 -91.875 437.960938 -138.628906 437.960938 -193.164062 Z M 372.425781 -193.164062 C 372.425781 -230.941406 360.078125 -262.6875 335.386719 -288.410156 C 310.234375 -315.097656 280.363281 -328.445312 245.769531 -328.445312 C 210.601562 -328.445312 180.765625 -315.425781 156.257812 -289.382812 C 130.917969 -263.523438 118.25 -231.453125 118.25 -193.164062 C 118.25 -155.515625 130.808594 -124.128906 155.925781 -99.011719 L 156.089844 -98.847656 L 156.25 -98.679688 C 181.335938 -72.058594 211.175781 -58.75 245.769531 -58.75 C 279.910156 -58.75 309.820312 -71.84375 335.5 -98.039062 C 360.117188 -124.195312 372.425781 -155.90625 372.425781 -193.164062 Z M 403.6875 -193.164062 C 403.6875 -147.640625 388.398438 -108.636719 357.824219 -76.152344 C 326.015625 -43.707031 288.664062 -27.484375 245.769531 -27.484375 C 202.175781 -27.484375 164.753906 -44.070312 133.496094 -77.238281 L 144.875 -87.960938 L 133.820312 -76.90625 C 102.597656 -108.128906 86.988281 -146.882812 86.988281 -193.164062 C 86.988281 -239.960938 102.488281 -279.175781 133.492188 -310.808594 C 164.171875 -343.40625 201.597656 -359.707031 245.769531 -359.707031 C 289.359375 -359.707031 326.75 -343.15625 357.9375 -310.058594 C 388.4375 -278.289062 403.6875 -239.324219 403.6875 -193.164062 Z M 403.6875 -193.164062 "/></g></g></g><g fill="#01758a" fill-opacity="1"><g transform="translate(0.301151, 780.552523)"><g><path d="M 453.59375 -193.171875 C 453.59375 -134.523438 434.046875 -84.21875 394.953125 -42.25 C 354.710938 -1.4375 304.984375 18.96875 245.765625 18.96875 C 185.972656 18.96875 136.53125 -1.4375 97.4375 -42.25 C 57.195312 -84.21875 37.078125 -134.523438 37.078125 -193.171875 C 37.078125 -252.953125 56.910156 -303.539062 96.578125 -344.9375 C 135.671875 -385.75 185.398438 -406.15625 245.765625 -406.15625 C 304.984375 -406.15625 354.425781 -385.75 394.09375 -344.9375 C 433.757812 -303.539062 453.59375 -252.953125 453.59375 -193.171875 Z M 388.0625 -193.171875 C 388.0625 -235.128906 374.257812 -270.484375 346.65625 -299.234375 C 318.488281 -329.128906 284.859375 -344.078125 245.765625 -344.078125 C 206.097656 -344.078125 172.46875 -329.414062 144.875 -300.09375 C 116.707031 -271.351562 102.625 -235.710938 102.625 -193.171875 C 102.625 -151.203125 116.707031 -116.128906 144.875 -87.953125 C 173.039062 -58.066406 206.671875 -43.125 245.765625 -43.125 C 284.285156 -43.125 317.914062 -57.78125 346.65625 -87.09375 C 374.257812 -116.414062 388.0625 -151.773438 388.0625 -193.171875 Z M 388.0625 -193.171875 "/></g></g></g></g></g></g></svg>
